<svg xmlns="http://www.w3.org/2000/svg" viewBox="0 0 183.5 65.3">
  <defs/>
  <path d="M55.2 23.3c-4.8-1.2-13.8-6.6-13.8-6.6C25.2 8.4 15 15.2 15 15.2v5.7c0-1 5.5-2.8 6.3-3 2.4-.8 5-1.2 7.5-1 4.5.7 8.5 4.1 8.8 8.9.4 6.2-11.3 8.4-11.3 8.4 4.5.8 9.2-.4 12.8-3.1a7.2 7.2 0 003-5c0-.6 0-3.7-.8-4a77.6 77.6 0 0037.8 5.2c1.2-.3 2.3-1 3.4-1.2-14.1 2.3-27.3-2.8-27.3-2.8zm88.6-14.1l5.6-5.7-5-1.1-5.2 5.2z"/>
  <path d="M140.6 28.5s-3.7-1-8.5-3c4.2-2.4 7-2 7-2 6 1 12.2 1.4 18.3 1.3 3.8-.1 8.5-.1 12-1.6.3 0 .6-.2.7-.4.5-1-2.3-3.5-3-4-1.5-1.2-3.3-2-5-2.7a55 55 0 00-13.5-3c-6.4-.7-13-.8-19.5-.5 33.6 2 36.6 8.6 36.6 8.6-1.9 1.3-17.3.6-23.7.2-2-1.3-11.6-7.5-27.3-8.8-.9-2.3-.5-5 3.3-7.4 0 0 2.7-2.8 22.8-.8 0 0-20.7-5.2-29-.3 0 0-5.5 2.8-3.5 8-1.8 0-12.1-.2-19 1.2l-8.1-5.8s-2-1.7 1.3-2c0 0 6.2-1.1 25.4 1.2 0 0-20.6-8-50.3 1.1 0 0 21.2-5.1 27.9 6.3H85s-16.5 2-42.2-3.2c0 0 15.6 11.4 28.4 11.8 1.7 0 3.4 0 5-.4 1.4-.2 2.9-.7 4-1.4 1.5-.9 2.4-2.1 3.8-3l3.4-1.6c3.4-1.4 7.1-2.3 10.8-2.3l11-.1c.6.9 1.4 1.9 2.6 2.9 0 0 6.2 5.2 15 9.3-3.1 2.6-4.7 5.4-4.7 5.4-.9 1-11.1.5-11.1.5 5 2.5 13.4.7 13.4.7 1.8-2.4 3.6-4.1 5.2-5.4 3.4 1.4 7.2 2.6 11 3.2 0 0 23.8 5.5 30.8-1 0 0-13.7 4.3-30.8-1zM119 18.1s-1.6-1.3-3-3.2a84.8 84.8 0 0120.3 6.6 21 21 0 00-7 2.8A49 49 0 01119 18z"/>
  <path d="M110.7 24.1a9.1 9.1 0 00-4-4.3c-5.3-2.9-11.8-1.7-17.2.2 0 0 14.5-2.2 18.4 5.4 0 0 2.2 4.8-2.4 9 1.2-1 2.8-1.5 3.9-2.8a7 7 0 001.3-7.5zM33.8 44.8c.2-2.2-.3-4-1.5-5.5-1.6-1.7-4.3-2.7-8-2.7H13.8l-8 26v.2H12l2.2-7.2h5l3.2 7.2h6.7l-3.7-8c4.8-1.5 7.9-5.2 8.4-10zm-15.4-3h4.7c1.7 0 3 .4 3.6 1.2.6.5.8 1.3.7 2.3-.4 3.4-2.8 5.2-6.7 5.2h-5l2.7-8.7zm24.2-1.7c2.3 0 4.1-1.4 4.3-3.7.1-.7-.1-1.4-.6-2-.6-.6-1.5-1-2.6-1-2.3 0-4.1 1.5-4.3 3.6-.1.8.1 1.6.6 2.1.6.7 1.5 1 2.6 1zm-4.3 2.5l-6.2 20.2h6l6.3-20.2zM65.8 35l-3 10c-1.2-1.7-3.3-2.7-6.1-2.7-6.3 0-11.7 5-12.4 11.7-.3 2.7.3 5 1.8 6.7a7.8 7.8 0 006 2.4c2.2 0 4.3-.7 6-2l-.5 1.7h5.8l8.5-27.7h-6zm-5 16.6c-.4 3.8-3 6.5-6.4 6.5-1.4 0-2.5-.4-3.2-1.2-.6-.7-1-1.8-.8-3 .4-3.9 3-6.5 6.4-6.5 1.4 0 2.5.4 3.2 1.2.6.7.9 1.8.8 3zM89.5 45c-1.5-1.8-4-2.7-7-2.7a13 13 0 00-13 11.7c-.3 2.5.3 4.7 1.7 6.3 1.7 1.8 4.3 2.8 7.6 2.8s6.4-1 8.7-2.7h.1l-2.1-4.1h-.2a9 9 0 01-5.4 1.9c-1.7 0-3-.4-3.7-1.1-.6-.7-.9-1.5-.9-2.7h15.3c.3-1.2.6-2.2.7-3.1.2-2.6-.4-4.8-1.8-6.4zm-13.3 5.8A6 6 0 0182 47c1.3 0 2.4.3 3 1 .7.7 1 1.7.8 2.8h-9.5z"/>
  <path fill="#eb9400" d="M117.1 38.4a15.8 15.8 0 00-8.8-2.2c-7.2 0-12.3 3.5-12.9 8.9-.5 5 3.9 6.2 7.4 7.2 2.4.7 4.5 1.4 4.3 3-.1 1.7-2.3 2.8-5.5 2.8-3 0-6-1-8.2-2.6l-.1-.1-3.1 4.8.1.1c2.2 1.8 6.2 3 10.2 3 7.3 0 12.5-3.6 13-9 .5-4.7-3.8-6-7.2-7-2.6-.7-4.7-1.3-4.5-3 .2-1.8 2.4-3 5.7-3 2.6 0 5 .7 6.7 2h.1l3-4.8h-.2zm19.3 6.7a9.9 9.9 0 00-7.5-2.8c-7 0-12.7 5-13.4 11.7a8 8 0 001.8 6.3c1.6 1.9 4.2 2.8 7.4 2.8 7 0 12.7-5 13.5-11.7.2-2.5-.4-4.7-1.8-6.3zm-4.4 6.5c-.4 3.8-3 6.5-6.4 6.5-1.3 0-2.4-.4-3.1-1.2-.7-.7-1-1.8-.8-3 .4-3.9 3-6.5 6.4-6.5 1.4 0 2.4.4 3.1 1.1.7.8 1 1.8.8 3.1zm14.5-16.5L138 62.8h6.1l8.5-27.7zm25.3-.1l-3.1 10c-1.1-1.7-3.2-2.7-6-2.7-6.4 0-11.8 5-12.5 11.7-.3 2.7.4 5 1.8 6.7a7.8 7.8 0 006 2.4c2.2 0 4.3-.7 6-2l-.5 1.7h5.8l8.5-27.7h-6zm-5.1 16.6c-.4 3.8-3 6.5-6.4 6.5-1.4 0-2.5-.4-3.2-1.2-.6-.7-.9-1.8-.7-3 .4-3.9 3-6.5 6.4-6.5 1.3 0 2.4.4 3.1 1.2.7.7 1 1.8.8 3z"/>
</svg>